<svg width="512" height="512" viewBox="0 0 512 512" style="color:currentColor" xmlns="http://www.w3.org/2000/svg" class="h-full w-full"><rect width="512" height="512" x="0" y="0" rx="30" fill="transparent" stroke="transparent" stroke-width="0" stroke-opacity="100%" paint-order="stroke"></rect><svg width="256px" height="256px" viewBox="0 0 32 32" fill="currentColor" x="128" y="128" role="img" style="display:inline-block;vertical-align:middle" xmlns="http://www.w3.org/2000/svg"><g fill="currentColor"><path fill="currentColor" d="M16 8a5 5 0 1 0 5 5a5 5 0 0 0-5-5Zm0 8a3 3 0 1 1 3-3a3.003 3.003 0 0 1-3 3Z"/><path fill="currentColor" d="M16 2a14 14 0 1 0 14 14A14.016 14.016 0 0 0 16 2Zm-6 24.377V25a3.003 3.003 0 0 1 3-3h6a3.003 3.003 0 0 1 3 3v1.377a11.899 11.899 0 0 1-12 0Zm13.992-1.451A5.002 5.002 0 0 0 19 20h-6a5.002 5.002 0 0 0-4.992 4.926a12 12 0 1 1 15.985 0Z"/></g></svg></svg>